# xmcd
#
# Track frame offsets:
#	150
#	15307
#	34955
#	57515
#	78280
#	99018
#	112884
#	124465
#	135235
#	155549
#	171826
#	185456
#	204366
#	219723
#	242044
#
# Disc length: 3440 seconds
#
# Revision: 0
# Processed by: cddbd v1.5.2PL0 Copyright (c) Steve Scherf et al.
# Submitted via: EasyCDDAExtractor 16.0.6.1
#
DISCID=c10d6e0f
DTITLE=Various Artist - Ti Amo 2 The Ultimate Italian Treasures Cd1
DYEAR=2012
DGENRE=Acoustic
TTITLE0=Gigliola Cinquetti - Dio come ti amo
TTITLE1=Loretta Goggi - Un amore grande
TTITLE2=Marcella Bella - Marcella Bella - Se tu mi aluterai
TTITLE3=Massimo Ranieri - Immagina
TTITLE4=Ornella Vanoni - Musica musica
TTITLE5=Caterina Caselli - Cento giorni
TTITLE6=Johnny Dorelli - Julia
TTITLE7=Fred Buscaglione - Guarda che luna
TTITLE8=Milva - Tango Italiano
TTITLE9=Sergio Endrigo - Sergio Endrigo - Canzone per te
TTITLE10=Johnny Dorelli - Parla piu' piano
TTITLE11=Betty Curtis - Al di la
TTITLE12=Johnny Dorelli - L' immensita
TTITLE13=Claudio Villa - Un amore cosi grande
TTITLE14=Luciana Gonzales - La vita e un paradiso di bugle
EXTD=
EXTT0=
EXTT1=
EXTT2=
EXTT3=
EXTT4=
EXTT5=
EXTT6=
EXTT7=
EXTT8=
EXTT9=
EXTT10=
EXTT11=
EXTT12=
EXTT13=
EXTT14=
PLAYORDER=
